<svg width="46" height="46" viewBox="0 0 46 46" fill="none" xmlns="http://www.w3.org/2000/svg">
<circle cx="23" cy="23" r="21" fill="white" stroke="#69E7B2" stroke-width="4"/>
<path fill-rule="evenodd" clip-rule="evenodd" d="M32.6225 12.0003C34.4156 11.9794 35.1944 13.0464 34.959 15.2011C34.866 15.4541 34.7563 15.6941 34.6299 15.9213C29.2201 22.5251 23.7901 29.1002 18.34 35.6463C17.5479 36.1663 16.78 36.1129 16.0364 35.4863C13.7639 32.7501 11.5151 29.9894 9.29008 27.2042C8.68568 25.6211 9.02576 24.4342 10.3103 23.6433C11.0066 23.3888 11.6429 23.5222 12.219 24.0434C13.8863 26.0705 15.5538 28.0978 17.2211 30.1249C17.265 30.1783 17.3089 30.1783 17.3528 30.1249C22.1794 24.2568 27.0061 18.3886 31.8327 12.5204C32.0916 12.3233 32.3549 12.1499 32.6225 12.0003Z" fill="#69E7B2"/>
</svg>
