<svg width="249" height="78" viewBox="0 0 249 78" fill="none" xmlns="http://www.w3.org/2000/svg">
<path d="M97.9265 52V26.5455H108.441C110.347 26.5455 111.992 26.9183 113.376 27.6641C114.768 28.4015 115.841 29.4331 116.595 30.7589C117.349 32.0763 117.726 33.6093 117.726 35.3576C117.726 37.1142 117.341 38.6513 116.57 39.9688C115.808 41.2779 114.718 42.293 113.301 43.0138C111.884 43.7347 110.202 44.0952 108.255 44.0952H101.767V39.2479H107.112C108.04 39.2479 108.814 39.0863 109.436 38.7631C110.065 38.44 110.542 37.9884 110.865 37.4084C111.188 36.8201 111.35 36.1365 111.35 35.3576C111.35 34.5704 111.188 33.891 110.865 33.3192C110.542 32.7392 110.065 32.2918 109.436 31.9769C108.806 31.6621 108.031 31.5046 107.112 31.5046H104.079V52H97.9265ZM120.759 52V26.5455H126.911V47.0036H137.5V52H120.759ZM146.533 52H139.921L148.509 26.5455H156.7L165.288 52H158.676L152.698 32.9588H152.499L146.533 52ZM145.651 41.9822H159.472V46.6555H145.651V41.9822ZM189.693 26.5455V52H184.473L174.343 37.3089H174.181V52H168.029V26.5455H173.324L183.342 41.2116H183.553V26.5455H189.693ZM199.714 26.5455V52H193.561V26.5455H199.714ZM203.576 52V26.5455H220.952V31.5419H209.728V36.7621H219.845V41.771H209.728V52H203.576ZM222.782 26.5455H229.655L235.037 37.1971H235.26L240.642 26.5455H247.515L238.206 43.4986V52H232.091V43.4986L222.782 26.5455Z" fill="#E2FAFD"/>
<circle cx="31.2" cy="31.2001" r="31.2" fill="#E2FAFD"/>
<path d="M16.3026 67V23.3636H34.3281C37.5952 23.3636 40.4148 24.0028 42.7869 25.2812C45.1733 26.5455 47.0128 28.3139 48.3054 30.5866C49.598 32.8452 50.2443 35.473 50.2443 38.4702C50.2443 41.4815 49.5838 44.1165 48.2628 46.375C46.956 48.6193 45.0881 50.3594 42.6591 51.5952C40.2301 52.831 37.3466 53.4489 34.0085 53.4489H22.8864V45.1392H32.0483C33.6392 45.1392 34.9673 44.8622 36.0327 44.3082C37.1122 43.7543 37.929 42.9801 38.483 41.9858C39.0369 40.9773 39.3139 39.8054 39.3139 38.4702C39.3139 37.1207 39.0369 35.956 38.483 34.9759C37.929 33.9815 37.1122 33.2145 36.0327 32.6747C34.9531 32.1349 33.625 31.8651 32.0483 31.8651H26.8494V67H16.3026Z" fill="#8DD9E0"/>
<circle cx="31" cy="14" r="4" fill="#8DD9E0"/>
</svg>
