<svg width="823" height="825" viewBox="0 0 823 825" fill="none" xmlns="http://www.w3.org/2000/svg">
<path fill-rule="evenodd" clip-rule="evenodd" d="M4.03761 357.597C3.61911 363.766 2.95251 369.766 2.03761 375.597C1.87181 370.918 2.03841 366.252 2.53761 361.597C2.74761 360.039 3.24761 358.706 4.03761 357.597Z" fill="#C4EAEF"/>
<path fill-rule="evenodd" clip-rule="evenodd" d="M820.038 368.597C821.683 373.331 822.349 378.331 822.038 383.597C820.649 378.828 819.982 373.828 820.038 368.597Z" fill="#C0EAF0"/>
<path fill-rule="evenodd" clip-rule="evenodd" d="M2.03779 375.597C1.37129 394.59 1.03799 413.59 1.03779 432.597C0.371394 424.771 0.0380939 416.771 0.0377939 408.597C-0.172406 397.385 0.494194 386.385 2.03779 375.597Z" fill="#BDE9F0"/>
<path fill-rule="evenodd" clip-rule="evenodd" d="M1.03809 432.597C2.78289 443.382 3.78289 454.382 4.03809 465.597C2.18149 454.821 1.18149 443.821 1.03809 432.597Z" fill="#B0E0E8"/>
<path fill-rule="evenodd" clip-rule="evenodd" d="M820.038 454.597C820.088 460.486 819.422 466.153 818.038 471.597C817.988 465.708 818.654 460.041 820.038 454.597Z" fill="#B4E1EA"/>
<path fill-rule="evenodd" clip-rule="evenodd" d="M496.038 8.59689C499.392 10.3545 503.059 11.3545 507.038 11.5969C524.524 16.0346 541.857 21.2013 559.038 27.0969C683.188 77.0677 765.521 165.568 806.038 292.597C812.375 317.617 817.042 342.95 820.038 368.597C819.982 373.828 820.649 378.828 822.038 383.597C822.494 407.313 821.827 430.98 820.038 454.597C818.654 460.041 817.988 465.708 818.038 471.597C810.363 521.789 794.196 569.122 769.538 613.597C703.231 726.189 605.731 794.522 477.038 818.597C470.48 819.012 464.147 820.012 458.038 821.597C448.677 821.98 439.344 822.647 430.038 823.597C412.031 823.568 394.031 823.235 376.038 822.597C369.441 821.42 362.775 820.753 356.038 820.597C351.248 819.372 346.248 818.705 341.038 818.597C330.128 816.25 319.128 813.75 308.038 811.097C251.473 795.148 200.139 769.148 154.038 733.097C70.1401 663.153 20.1403 573.987 4.03809 465.597C3.78289 454.382 2.78289 443.382 1.03809 432.597C1.03829 413.59 1.37159 394.59 2.03809 375.597C2.95299 369.766 3.61959 363.766 4.03809 357.597C8.49539 326.972 15.4954 296.972 25.0381 267.597C57.5911 183.711 111.257 116.544 186.038 66.0969C281.401 6.14059 384.734 -13.026 496.038 8.59689Z" fill="#57C5DA"/>
<path fill-rule="evenodd" clip-rule="evenodd" d="M785.038 372.597C786.571 384.152 787.238 395.819 787.038 407.597C787.186 420.796 786.519 433.796 785.038 446.597C784.361 435.528 783.695 424.362 783.038 413.097C783.577 399.666 784.243 386.166 785.038 372.597Z" fill="#D9F6F8"/>
<path fill-rule="evenodd" clip-rule="evenodd" d="M466.038 39.5969C471.144 41.1413 476.477 42.1413 482.038 42.5969C610.625 69.3501 702.459 142.35 757.538 261.597C772.469 297.19 781.635 334.19 785.038 372.597C784.243 386.166 783.577 399.666 783.038 413.097C783.695 424.362 784.361 435.528 785.038 446.597C771.519 565.863 715.519 659.363 617.038 727.097C574.793 754.712 528.793 773.212 479.038 782.597C450.225 787.073 421.225 789.073 392.038 788.597C386.594 787.213 380.927 786.547 375.038 786.597C283.721 776.353 205.888 738.686 141.538 673.597C59.0783 584.666 24.7447 479.333 38.5383 357.597C51.0483 276.582 85.3813 206.582 141.538 147.597C226.839 64.4843 329.339 27.651 449.038 37.0969C454.66 38.2585 460.327 39.0918 466.038 39.5969Z" fill="#D9FAFE"/>
<path fill-rule="evenodd" clip-rule="evenodd" d="M180.038 585.597C181.46 585.806 182.793 586.306 184.038 587.097C334.371 587.597 484.704 587.764 635.038 587.597C638.136 587.51 638.47 588.01 636.038 589.097C484.705 589.764 333.371 589.764 182.038 589.097C179.555 588.53 178.888 587.364 180.038 585.597Z" fill="#DDF9FB"/>
<path fill-rule="evenodd" clip-rule="evenodd" d="M646.038 582.597C642.467 584.342 638.8 585.675 635.038 586.597C486.038 586.764 337.038 586.597 188.038 586.097C337.371 585.764 486.705 585.43 636.038 585.097C639.156 584.224 642.156 583.058 645.038 581.597C645.645 581.721 645.978 582.054 646.038 582.597Z" fill="#4BBCD2"/>
<path fill-rule="evenodd" clip-rule="evenodd" d="M665.038 267.597C666.371 315.259 667.038 363.259 667.038 411.597C667.198 460.654 666.698 509.654 665.538 558.597C665.038 461.598 664.871 364.598 665.038 267.597Z" fill="#E4F5F7"/>
<path fill-rule="evenodd" clip-rule="evenodd" d="M159.038 264.597C159.038 363.264 159.038 461.93 159.038 560.597C158.978 561.14 158.645 561.473 158.038 561.597C156.705 462.264 156.705 362.93 158.038 263.597C158.645 263.721 158.978 264.054 159.038 264.597Z" fill="#E1FBFB"/>
<path fill-rule="evenodd" clip-rule="evenodd" d="M637.038 239.597C650.441 242.498 659.275 250.498 663.538 263.597C664.205 362.597 664.205 461.597 663.538 560.597C660.767 570.524 654.934 577.857 646.038 582.597C645.978 582.054 645.645 581.721 645.038 581.597C642.156 583.058 639.156 584.224 636.038 585.097C486.705 585.43 337.371 585.764 188.038 586.097C337.038 586.597 486.038 586.764 635.038 586.597C635.038 586.93 635.038 587.264 635.038 587.597C484.704 587.764 334.371 587.597 184.038 587.097C182.793 586.306 181.46 585.806 180.038 585.597C169.665 580.225 162.999 571.891 160.038 560.597C159.705 560.597 159.371 560.597 159.038 560.597C159.038 461.93 159.038 363.264 159.038 264.597C162.172 255.94 167.505 248.773 175.038 243.097C176.283 242.306 177.616 241.806 179.038 241.597C181.193 241.725 183.193 241.225 185.038 240.097C335.704 239.597 486.371 239.43 637.038 239.597Z" fill="#57C5DA"/>
<path fill-rule="evenodd" clip-rule="evenodd" d="M609.038 556.597C609.581 556.657 609.914 556.99 610.038 557.597C543.705 557.93 477.371 558.264 411.038 558.597C344.301 558.599 278.301 558.265 213.038 557.597C345.206 557.93 477.206 557.597 609.038 556.597Z" fill="#BDE9EF"/>
<path fill-rule="evenodd" clip-rule="evenodd" d="M216.038 554.597C280.662 555.927 345.495 556.594 410.538 556.597C476.393 556.59 542.226 556.257 608.038 555.597C608.705 555.597 609.038 555.93 609.038 556.597C477.206 557.597 345.206 557.93 213.038 557.597C213.705 556.264 214.705 555.264 216.038 554.597Z" fill="#E9F8FA"/>
<path fill-rule="evenodd" clip-rule="evenodd" d="M639.038 282.597C641.298 283.335 641.465 284.335 639.538 285.597C639.535 371.071 638.869 456.404 637.538 541.597C637.371 498.597 637.205 455.597 637.038 412.597C637.043 369.053 637.71 325.719 639.038 282.597Z" fill="#4EC7E0"/>
<path fill-rule="evenodd" clip-rule="evenodd" d="M608.038 555.597C542.226 556.257 476.393 556.59 410.538 556.597C345.495 556.594 280.662 555.927 216.038 554.597C259.837 510.298 303.837 466.132 348.038 422.097C349.038 421.43 350.038 421.43 351.038 422.097C362.816 433.144 375.15 443.478 388.038 453.097C404.199 461.932 420.199 461.599 436.038 452.097C449.162 441.975 461.995 431.475 474.538 420.597C518.851 465.744 563.351 510.744 608.038 555.597Z" fill="#D9FAFD"/>
<path fill-rule="evenodd" clip-rule="evenodd" d="M225.038 552.597C307.435 553.878 389.935 553.878 472.538 552.597C512.501 553.082 552.335 553.915 592.038 555.097C468.37 555.93 344.703 555.764 221.038 554.597C222.487 553.925 223.82 553.258 225.038 552.597Z" fill="#D4FBFD"/>
<path fill-rule="evenodd" clip-rule="evenodd" d="M160.038 560.597C159.871 462.596 160.038 364.596 160.538 266.597C160.707 364.637 161.207 462.637 162.038 560.597C161.568 561.56 160.901 561.56 160.038 560.597Z" fill="#4ABED5"/>
<path fill-rule="evenodd" clip-rule="evenodd" d="M634.038 286.597C634.098 286.054 634.431 285.721 635.038 285.597C636.371 370.93 636.371 456.264 635.038 541.597C634.431 541.473 634.098 541.14 634.038 540.597C635.371 455.93 635.371 371.264 634.038 286.597Z" fill="#B9EDF2"/>
<path fill-rule="evenodd" clip-rule="evenodd" d="M189.038 286.597C188.2 286.939 187.866 287.605 188.038 288.597C187.705 372.765 188.039 456.765 189.038 540.597C188.978 541.14 188.645 541.473 188.038 541.597C186.705 456.264 186.705 370.93 188.038 285.597C188.645 285.721 188.978 286.054 189.038 286.597Z" fill="#A1E8EF"/>
<path fill-rule="evenodd" clip-rule="evenodd" d="M634.038 286.597C635.371 371.264 635.371 455.93 634.038 540.597C633.705 539.93 633.371 539.264 633.038 538.597C634.359 454.743 634.359 371.077 633.038 287.597C633.705 287.597 634.038 287.264 634.038 286.597Z" fill="#E7FBFB"/>
<path fill-rule="evenodd" clip-rule="evenodd" d="M188.038 288.597C188.705 371.93 189.371 455.264 190.038 538.597C189.705 539.264 189.371 539.93 189.038 540.597C188.039 456.765 187.705 372.765 188.038 288.597Z" fill="#D9FCFD"/>
<path fill-rule="evenodd" clip-rule="evenodd" d="M189.038 286.597C201.304 295.897 212.97 305.897 224.038 316.597C223.641 317.622 222.975 317.789 222.038 317.097C215.627 311.011 208.96 305.344 202.038 300.097C200.794 299.641 199.961 300.141 199.538 301.597C197.85 300.772 197.683 299.772 199.038 298.597C197.822 298.001 196.489 297.834 195.038 298.097C195.371 297.764 195.705 297.43 196.038 297.097C194.666 295.855 193.666 294.355 193.038 292.597C192.173 291.514 191.173 291.348 190.038 292.097C191.369 372.722 191.369 453.388 190.038 534.097C190.594 535.108 191.26 535.941 192.038 536.597C191.705 537.597 191.038 538.264 190.038 538.597C189.371 455.264 188.705 371.93 188.038 288.597C187.866 287.605 188.2 286.939 189.038 286.597Z" fill="#DEF8FA"/>
<path fill-rule="evenodd" clip-rule="evenodd" d="M633.038 287.597C634.359 371.077 634.359 454.743 633.038 538.597C587.419 493.645 542.086 448.312 497.038 402.597C542.362 364.266 587.696 325.933 633.038 287.597Z" fill="#D9FAFD"/>
<path fill-rule="evenodd" clip-rule="evenodd" d="M224.038 316.597C258.224 344.859 292.224 373.359 326.038 402.097C281.877 447.425 237.21 492.258 192.038 536.597C191.26 535.941 190.594 535.108 190.038 534.097C191.369 453.388 191.369 372.722 190.038 292.097C191.173 291.348 192.173 291.514 193.038 292.597C193.666 294.355 194.666 295.855 196.038 297.097C195.705 297.43 195.371 297.764 195.038 298.097C196.489 297.834 197.822 298.001 199.038 298.597C197.683 299.772 197.85 300.772 199.538 301.597C199.961 300.141 200.794 299.641 202.038 300.097C208.96 305.344 215.627 311.011 222.038 317.097C222.975 317.789 223.641 317.622 224.038 316.597Z" fill="#D9FAFD"/>
<path fill-rule="evenodd" clip-rule="evenodd" d="M605.038 267.597C607.273 267.302 609.273 267.636 611.038 268.597C548.587 321.327 485.921 373.827 423.038 426.097C416.225 431.551 409.225 431.884 402.038 427.097C339.261 375.818 277.261 323.651 216.038 270.597C345.785 270.273 475.452 269.273 605.038 267.597Z" fill="#D9FAFD"/>
<path fill-rule="evenodd" clip-rule="evenodd" d="M605.038 267.597C475.452 269.273 345.785 270.273 216.038 270.597C214.828 270.165 213.828 269.498 213.038 268.597C343.537 267.597 474.204 267.264 605.038 267.597Z" fill="#DCF6F9"/>
<path fill-rule="evenodd" clip-rule="evenodd" d="M611.038 268.597C609.273 267.636 607.273 267.302 605.038 267.597C474.204 267.264 343.537 267.597 213.038 268.597C212.495 268.537 212.162 268.204 212.038 267.597C345.371 266.264 478.705 266.264 612.038 267.597C611.914 268.204 611.581 268.537 611.038 268.597Z" fill="#55CCE2"/>
<path fill-rule="evenodd" clip-rule="evenodd" d="M185.038 238.597C186.038 238.597 187.038 238.597 188.038 238.597C337.872 238.264 487.539 238.597 637.038 239.597C486.371 239.43 335.704 239.597 185.038 240.097C183.193 241.225 181.193 241.725 179.038 241.597C180.788 240.227 182.788 239.227 185.038 238.597Z" fill="#5CBDD0"/>
<path fill-rule="evenodd" clip-rule="evenodd" d="M188.038 238.597C187.038 238.597 186.038 238.597 185.038 238.597C260.202 237.264 335.702 236.597 411.538 236.597C487.038 236.764 562.538 236.93 638.038 237.097C487.871 237.264 337.871 237.764 188.038 238.597Z" fill="#EDFBFB"/>
<path fill-rule="evenodd" clip-rule="evenodd" d="M375.038 786.597C380.927 786.547 386.594 787.213 392.038 788.597C386.149 788.647 380.482 787.981 375.038 786.597Z" fill="#A4DDE6"/>
<path fill-rule="evenodd" clip-rule="evenodd" d="M479.038 782.597C478.62 783.319 477.954 783.819 477.038 784.097C448.714 788.908 420.381 790.408 392.038 788.597C421.225 789.073 450.225 787.073 479.038 782.597Z" fill="#80CDDB"/>
<path fill-rule="evenodd" clip-rule="evenodd" d="M341.038 818.597C346.248 818.705 351.248 819.372 356.038 820.597C350.788 820.795 345.788 820.128 341.038 818.597Z" fill="#D0EEF3"/>
<path fill-rule="evenodd" clip-rule="evenodd" d="M477.038 818.597C476.62 819.319 475.954 819.819 475.038 820.097C469.403 821.001 463.736 821.501 458.038 821.597C464.147 820.012 470.48 819.012 477.038 818.597Z" fill="#C9EAEF"/>
<path fill-rule="evenodd" clip-rule="evenodd" d="M376.038 822.597C394.031 823.235 412.031 823.568 430.038 823.597C422.879 824.263 415.546 824.597 408.038 824.597C397.162 824.78 386.495 824.114 376.038 822.597Z" fill="#AFE1EA"/>
</svg>
