<svg width="505" height="349" viewBox="0 0 505 349" fill="none" xmlns="http://www.w3.org/2000/svg">
<path fill-rule="evenodd" clip-rule="evenodd" d="M478 0.0626406C491.403 2.96364 500.237 10.9636 504.5 24.0626C505.167 123.063 505.167 222.063 504.5 321.063C501.729 330.99 495.896 338.323 487 343.063C486.94 342.52 486.607 342.187 486 342.063C483.118 343.524 480.118 344.69 477 345.563C327.667 345.896 178.333 346.23 29 346.563C178 347.063 327 347.23 476 347.063C476 347.396 476 347.73 476 348.063C325.666 348.23 175.333 348.063 25 347.563C23.755 346.772 22.422 346.272 21 346.063C10.627 340.691 3.961 332.357 1 321.063C0.667 321.063 0.333 321.063 0 321.063C0 222.396 0 123.73 0 25.0626C3.134 16.4056 8.467 9.23864 16 3.56264C17.245 2.77164 18.578 2.27164 20 2.06264C22.155 2.19064 24.155 1.69064 26 0.562641C176.666 0.0626406 327.333 -0.104359 478 0.0626406Z" fill="#57C5DA"/>
<path fill-rule="evenodd" clip-rule="evenodd" d="M449 316.063C383.188 316.723 317.355 317.056 251.5 317.063C186.457 317.06 121.624 316.393 57 315.063C100.799 270.764 144.799 226.598 189 182.563C190 181.896 191 181.896 192 182.563C203.778 193.61 216.112 203.944 229 213.563C245.161 222.398 261.161 222.065 277 212.563C290.124 202.441 302.957 191.941 315.5 181.063C359.813 226.21 404.313 271.21 449 316.063Z" fill="#D9FAFD"/>
<path fill-rule="evenodd" clip-rule="evenodd" d="M66 313.063C148.397 314.344 230.897 314.344 313.5 313.063C353.463 313.548 393.297 314.381 433 315.563C309.332 316.396 185.665 316.23 62 315.063C63.449 314.391 64.782 313.724 66 313.063Z" fill="#D4FBFD"/>
<path fill-rule="evenodd" clip-rule="evenodd" d="M29.9999 47.0627C42.2659 56.3627 53.9319 66.3627 64.9999 77.0627C64.6029 78.0877 63.9369 78.2547 62.9999 77.5627C56.5889 71.4767 49.9219 65.8097 42.9999 60.5627C41.7559 60.1067 40.9229 60.6067 40.4999 62.0627C38.8119 61.2377 38.6449 60.2377 39.9999 59.0627C38.7839 58.4667 37.4509 58.2997 35.9999 58.5627C36.3329 58.2297 36.6669 57.8957 36.9999 57.5627C35.6279 56.3207 34.6279 54.8207 33.9999 53.0627C33.1349 51.9797 32.1349 51.8137 30.9999 52.5627C32.3309 133.188 32.3309 213.854 30.9999 294.563C31.5559 295.574 32.2219 296.407 32.9999 297.063C32.6669 298.063 31.9999 298.73 30.9999 299.063C30.3329 215.73 29.6669 132.396 28.9999 49.0627C28.8279 48.0707 29.1619 47.4047 29.9999 47.0627Z" fill="#DEF8FA"/>
<path fill-rule="evenodd" clip-rule="evenodd" d="M474 48.0627C475.321 131.543 475.321 215.209 474 299.063C428.381 254.111 383.048 208.778 338 163.063C383.324 124.732 428.658 86.3987 474 48.0627Z" fill="#D9FAFD"/>
<path fill-rule="evenodd" clip-rule="evenodd" d="M65 77.0627C99.186 105.325 133.186 133.825 167 162.563C122.839 207.891 78.172 252.724 33 297.063C32.222 296.407 31.556 295.574 31 294.563C32.331 213.854 32.331 133.188 31 52.5627C32.135 51.8137 33.135 51.9797 34 53.0627C34.628 54.8207 35.628 56.3207 37 57.5627C36.667 57.8957 36.333 58.2297 36 58.5627C37.451 58.2997 38.784 58.4667 40 59.0627C38.645 60.2377 38.812 61.2377 40.5 62.0627C40.923 60.6067 41.756 60.1067 43 60.5627C49.922 65.8097 56.589 71.4767 63 77.5627C63.937 78.2547 64.603 78.0877 65 77.0627Z" fill="#D9FAFD"/>
<path fill-rule="evenodd" clip-rule="evenodd" d="M446 28.0628C448.235 27.7678 450.235 28.1018 452 29.0628C389.549 81.7928 326.883 134.293 264 186.563C257.187 192.017 250.187 192.35 243 187.563C180.223 136.284 118.223 84.1168 57 31.0628C186.747 30.7388 316.414 29.7388 446 28.0628Z" fill="#D9FAFD"/>
<path fill-rule="evenodd" clip-rule="evenodd" d="M452 29.0627C450.235 28.1017 448.235 27.7677 446 28.0627C315.166 27.7297 184.499 28.0627 54 29.0627C53.457 29.0027 53.124 28.6697 53 28.0627C186.333 26.7297 319.667 26.7297 453 28.0627C452.876 28.6697 452.543 29.0027 452 29.0627Z" fill="#55CCE2"/>
</svg>
